<svg viewBox="0 0 51 14.0137" xmlns="http://www.w3.org/2000/svg" xmlns:xlink="http://www.w3.org/1999/xlink" width="51.000000" height="14.013672" fill="none" customFrame="#000000">
	<g id="Group">
		<path id="path10" d="M0.00186348 0.00726276C6.00585 0.00726276 12.0085 0.0125153 18.0125 0.00463867C18.019 1.6456 18.0254 3.28655 18.01 4.92882C13.7701 4.92751 9.52895 4.92488 5.2878 4.93013C5.29038 6.98986 5.28522 9.05091 5.29038 11.1106C9.00332 11.1028 12.7163 11.1093 16.4279 11.108C16.4486 12.7437 16.424 14.3794 16.4408 16.0151C12.724 16.0112 9.00849 16.0191 5.29297 16.0112C5.28393 19.8917 5.2878 23.7723 5.29038 27.6528C3.53013 27.6331 1.76987 27.6331 0.00961228 27.6515C-0.00975959 18.4372 0.00702931 9.22157 0.00186348 0.00726276Z" fill="rgb(62.6875,62.6875,62.6875)" fill-rule="nonzero" />
		<path id="path12" d="M10.9017 27.6555C10.8952 18.4372 10.8939 9.21898 10.9029 0.000732422C17.1071 0.0204239 23.3126 0.0099229 29.518 0.00598461C29.5193 1.64825 29.5116 3.29052 29.5219 4.93148C25.0418 4.93148 20.5605 4.92361 16.0804 4.93673C16.0946 6.86387 16.0817 8.79233 16.0869 10.7208C20.2014 10.7103 24.3147 10.7168 28.4293 10.7168C28.4138 12.3512 28.4319 13.9869 28.4177 15.6213C24.3083 15.6253 20.1976 15.6279 16.0881 15.6187C16.0778 17.9843 16.0985 20.3499 16.0778 22.7142C20.7606 22.73 25.4435 22.7168 30.1276 22.7208C30.1392 24.3617 30.1392 26.0027 30.1276 27.645C23.7194 27.6502 17.3099 27.6279 10.9017 27.6555Z" fill="rgb(62.6875,62.6875,62.6875)" fill-rule="nonzero" />
		<path id="path14" d="M22.6535 0.000732422C24.5183 0.0151728 26.3832 0.0191111 28.2481 0.000732422C31.6123 6.42409 34.9753 12.8475 38.346 19.2669C38.3576 12.8488 38.3563 6.43066 38.346 0.0138609C39.99 0.00467152 41.634 0.016488 43.278 0.00729865C43.2858 9.2216 43.2845 18.4359 43.2793 27.6502C41.5204 27.6371 39.7614 27.6449 38.0037 27.6449C34.5529 21.0667 31.0944 14.4923 27.6256 7.92327C27.6269 14.5002 27.6282 21.0759 27.6243 27.6528C25.9673 27.6384 24.3091 27.6318 22.6509 27.6568C22.6625 18.4385 22.6573 9.21897 22.6535 0.000732422Z" fill="rgb(62.6875,62.6875,62.6875)" fill-rule="nonzero" />
		<path id="path16" d="M35.6607 0.00341797C39.5015 0.0152328 43.3423 0.00341637 47.1831 0.00998019C49.2894 0.0441121 51.4462 0.647984 53.0695 2.06183C54.7704 3.4166 55.7635 5.45927 56.3847 7.51899C56.909 9.39493 57.1002 11.351 57.1325 13.2965C57.0563 16.3014 56.6391 19.3785 55.2741 22.0828C54.4191 23.9561 52.9946 25.5721 51.2098 26.5685C49.9016 27.2918 48.4074 27.5964 46.93 27.6358C43.177 27.6542 39.4227 27.6214 35.6698 27.6529C35.6439 18.4359 35.662 9.21902 35.6607 0.00341797ZM40.895 4.82126C40.8808 10.8219 40.8872 16.8226 40.8911 22.8232C42.561 22.8153 44.2295 22.8232 45.8994 22.8193C46.5826 22.8009 47.2799 22.7142 47.9102 22.4333C49.1306 21.9213 49.9972 20.812 50.5719 19.6397C51.5417 17.5026 51.7535 15.095 51.6903 12.7701C51.6322 10.5423 51.299 8.157 49.8538 6.38739C48.9847 5.29255 47.546 4.92891 46.2261 4.84096C44.4491 4.80814 42.672 4.84752 40.895 4.82126Z" fill="rgb(62.6875,62.6875,62.6875)" fill-rule="nonzero" />
		<path id="path18" d="M48.3321 27.6626C48.3127 18.4417 48.3153 9.22086 48.3308 0C50.0885 0.0262553 51.8474 0.0065635 53.6051 0.00787627C53.6129 9.21955 53.6167 18.4325 53.6038 27.6455C51.8461 27.6534 50.0885 27.6193 48.3321 27.6626Z" fill="rgb(62.6875,62.6875,62.6875)" fill-rule="nonzero" />
	</g>
</svg>
