<svg xmlns="http://www.w3.org/2000/svg" width="51" height="14.014" fill="none"><g fill="#3E3E3E"><path d="M.002.007c6.004 0 12.006.006 18.01-.002a369.08 369.08 0 01-.002 4.924c-4.24-.001-8.481-.004-12.722.001.002 2.06-.003 4.12.002 6.18 3.713-.007 7.426 0 11.138-.002.02 1.636-.004 3.271.013 4.907-3.717-.004-7.433.004-11.148-.004-.01 3.88-.005 7.761-.003 11.642-1.76-.02-3.52-.02-5.28-.002C-.01 18.438.007 9.221.002.008z"/><path d="M10.902 27.655c-.007-9.218-.008-18.436 0-27.654 6.205.02 12.41.009 18.616.005.001 1.642-.006 3.285.004 4.925-4.48 0-8.961-.007-13.442.006.015 1.927.002 3.855.007 5.784 4.114-.01 8.228-.004 12.342-.004-.015 1.634.003 3.27-.011 4.904-4.11.004-8.22.007-12.33-.002-.01 2.365.01 4.73-.01 7.095 4.683.016 9.366.003 14.05.007.011 1.64.011 3.282 0 4.924-6.409.005-12.818-.017-19.226.01z"/><path d="M22.654 0c1.864.015 3.73.02 5.594 0 3.364 6.424 6.727 12.848 10.098 19.267.012-6.418.01-12.836 0-19.253 1.644-.01 3.288.002 4.932-.007.008 9.215.007 18.429.001 27.643-1.759-.013-3.518-.005-5.275-.005A8606.741 8606.741 0 0027.626 7.923c0 6.577.002 13.153-.002 19.73a209.274 209.274 0 00-4.973.004c.012-9.218.006-18.438.003-27.656z"/><path d="M35.66.003c3.842.012 7.682 0 11.523.007 2.106.034 4.263.638 5.886 2.052 1.701 1.355 2.694 3.397 3.316 5.457.524 1.876.715 3.832.748 5.777-.077 3.005-.494 6.082-1.859 8.787-.855 1.873-2.28 3.49-4.064 4.486-1.308.723-2.803 1.027-4.28 1.067-3.753.018-7.507-.015-11.26.017-.026-9.217-.008-18.434-.01-27.65zm5.235 4.818c-.014 6-.008 12.002-.004 18.002 1.67-.008 3.339 0 5.008-.004.684-.018 1.38-.105 2.011-.386 1.22-.512 2.087-1.621 2.662-2.793.97-2.137 1.181-4.545 1.118-6.87-.058-2.228-.391-4.613-1.836-6.383-.87-1.094-2.308-1.458-3.628-1.546-1.777-.033-3.554.007-5.331-.02z"/><path d="M48.332 27.663c-.02-9.221-.017-18.442-.001-27.663 1.758.026 3.516.007 5.274.008.008 9.212.012 18.425-.001 27.637-1.758.008-3.515-.026-5.272.018z"/></g></svg>