<svg width="102.337402" height="44.000000" viewBox="0 0 102.337 44" fill="none" xmlns="http://www.w3.org/2000/svg" xmlns:xlink="http://www.w3.org/1999/xlink">
	<desc>
			Created with Pixso.
	</desc>
	<defs/>
	<rect id="Rectangle" y="9.000000" width="92.539131" height="35.000000" fill="#000000" fill-opacity="0"/>
	<rect id="Rectangle" x="1.500000" y="10.500000" width="89.539131" height="32.000000" stroke="#FFFFFF" stroke-opacity="1.000000" stroke-width="3.000000"/>
	<path id="crisp" d="M20.29 33.86C21 34.79 22.19 35.25 23.87 35.25Q26.14 35.25 27.14 34.13Q27.21 34.05 27.27 33.98C27.92 33.11 28.25 31.9 28.25 30.34L28.25 29.04L25.41 29.04L25.41 30.5Q25.41 31.38 25.31 31.92C25.26 32.26 25.12 32.54 24.89 32.75C24.68 32.97 24.34 33.08 23.89 33.08C23.26 33.08 22.83 32.88 22.59 32.48C22.35 32.06 22.23 31.4 22.23 30.48L22.23 23.46Q22.23 22.58 22.33 22.04C22.41 21.66 22.57 21.37 22.81 21.16C23.05 20.93 23.41 20.82 23.89 20.82C24.36 20.82 24.7 20.92 24.91 21.14C25.14 21.34 25.28 21.6 25.33 21.94C25.38 22.26 25.41 22.7 25.41 23.28L25.41 24.68L28.25 24.68L28.25 23.32Q28.25 21.06 27.25 19.86C26.58 19.06 25.46 18.66 23.87 18.66Q21.54 18.66 20.47 19.82Q20.38 19.92 20.29 20.04C19.6 20.96 19.25 22.3 19.25 24.08L19.25 29.86C19.25 31.58 19.6 32.91 20.29 33.86ZM53.81 34.02C54.54 34.84 55.64 35.25 57.11 35.25C57.91 35.25 58.62 35.09 59.23 34.75C59.84 34.41 60.32 33.93 60.65 33.34C61 32.74 61.17 32.05 61.17 31.28C61.17 30.29 60.96 29.42 60.53 28.68C60.1 27.93 59.51 27.23 58.75 26.58L56.73 24.8Q56.03 24.2 55.71 23.68C55.51 23.32 55.41 22.88 55.41 22.36C55.41 21.92 55.53 21.56 55.77 21.28C56.01 20.98 56.34 20.84 56.77 20.84C57.37 20.84 57.77 21.06 57.97 21.52C58.18 21.96 58.31 22.62 58.35 23.5L60.89 23.06C60.8 21.71 60.44 20.64 59.83 19.86Q59.72 19.7 59.59 19.57Q58.67 18.66 56.83 18.66C55.52 18.66 54.5 19.01 53.75 19.71C53.02 20.41 52.65 21.39 52.65 22.66C52.65 23.51 52.8 24.24 53.11 24.86C53.43 25.47 53.9 26.04 54.53 26.58L56.57 28.36C57.18 28.89 57.63 29.38 57.91 29.84C58.2 30.28 58.35 30.82 58.35 31.46C58.35 31.92 58.24 32.3 58.01 32.58C57.8 32.84 57.46 32.98 57.01 32.98C56.4 32.98 55.94 32.71 55.65 32.18Q55.23 31.36 55.17 29.82L52.63 30.32Q52.73 32.78 53.81 34.02ZM36.21 18.84L32.31 18.84L32.31 35.04L35.25 35.04L35.25 27.62L36.65 27.62L38.59 35.04L41.55 35.04L39.29 27.06C40.02 26.76 40.54 26.3 40.83 25.66C41.14 25 41.29 24.16 41.29 23.14C41.29 21.56 40.87 20.45 40.03 19.82C39.19 19.16 37.92 18.84 36.21 18.84ZM48.52 18.84L45.6 18.84L45.6 35.04L48.52 35.04L48.52 18.84ZM69.67 18.84L64.91 18.84L64.91 35.04L67.85 35.04L67.85 27.84L69.47 27.84Q71.61 27.84 72.7 26.77Q73.81 25.67 73.81 23.44C73.81 20.37 72.43 18.84 69.67 18.84ZM37.97 25.2C37.62 25.58 37.03 25.78 36.19 25.78L35.25 25.78L35.25 20.86L36.35 20.86C37.16 20.86 37.72 21.05 38.03 21.44C38.35 21.82 38.51 22.44 38.51 23.3Q38.51 24.62 37.97 25.2ZM70.61 25.26C70.33 25.59 69.79 25.76 68.99 25.76L67.85 25.76L67.85 20.92L68.99 20.92C69.59 20.92 70.03 21 70.31 21.18C70.61 21.35 70.8 21.61 70.89 21.96C70.99 22.29 71.03 22.78 71.03 23.42C71.03 24.3 70.89 24.91 70.61 25.26Z" fill="#FFFFFF" fill-opacity="1.000000" fill-rule="evenodd"/>
	<path id="Vector" d="M97.43 38L97.43 33.5L100.7 33.5L100.7 1.5L11.43 1.5L11.43 4.5L7.07 4.5" stroke="#FFFFFF" stroke-opacity="1.000000" stroke-width="3.000000"/>
</svg>
