<svg width="94" height="44" fill="none" xmlns="http://www.w3.org/2000/svg"><path d="M0 9h85v35H0z"/><path stroke="#FFF" stroke-width="3" d="M1.5 10.5h82v32h-82z"/><path d="M16.52 33.86c.71.93 1.9 1.39 3.58 1.39q2.27 0 3.28-1.12.06-.08.12-.15c.65-.87.98-2.08.98-3.64v-1.3h-2.84v1.46q0 .88-.1 1.42c-.05.34-.19.62-.42.83-.21.22-.55.33-1 .33-.63 0-1.06-.2-1.3-.6-.24-.42-.36-1.08-.36-2v-7.02q0-.88.1-1.42c.08-.38.24-.67.48-.88.24-.23.6-.34 1.08-.34.47 0 .81.1 1.02.32.23.2.37.46.42.8.05.32.08.76.08 1.34v1.4h2.84v-1.36q0-2.26-1-3.46c-.67-.8-1.79-1.2-3.38-1.2q-2.33 0-3.4 1.16-.09.1-.18.22-1.04 1.38-1.04 4.04v5.78q0 2.57 1.04 4zm33.52.16c.73.82 1.83 1.23 3.3 1.23.8 0 1.51-.16 2.12-.5.61-.34 1.09-.82 1.42-1.41.35-.6.52-1.29.52-2.06 0-.99-.21-1.86-.64-2.6-.43-.75-1.02-1.45-1.78-2.1l-2.02-1.78c-.47-.4-.81-.78-1.02-1.12-.2-.36-.3-.8-.3-1.32 0-.44.12-.8.36-1.08.24-.3.57-.44 1-.44.6 0 1 .22 1.2.68.21.44.34 1.1.38 1.98l2.54-.44c-.09-1.35-.45-2.42-1.06-3.2-.6-.8-1.6-1.2-3-1.2-1.31 0-2.33.35-3.08 1.05-.73.7-1.1 1.68-1.1 2.95 0 .85.15 1.58.46 2.2.32.61.79 1.18 1.42 1.72l2.04 1.78c.61.53 1.06 1.02 1.34 1.48.29.44.44.98.44 1.62 0 .46-.11.84-.34 1.12-.21.26-.55.4-1 .4-.61 0-1.07-.27-1.36-.8q-.42-.82-.48-2.36l-2.54.5q.1 2.46 1.18 3.7zm-17.6-15.18h-3.9v16.2h2.94v-7.42h1.4l1.94 7.42h2.96l-2.26-7.98c.73-.3 1.25-.76 1.54-1.4.31-.66.46-1.5.46-2.52 0-1.58-.42-2.69-1.26-3.32-.84-.66-2.11-.98-3.82-.98zm12.31 0h-2.92v16.2h2.92v-16.2zm21.15 0h-4.76v16.2h2.94v-7.2h1.62q2.14 0 3.23-1.07 1.11-1.1 1.11-3.33c0-3.07-1.38-4.6-4.14-4.6zM34.2 25.2c-.35.38-.94.58-1.78.58h-.94v-4.92h1.1c.81 0 1.37.19 1.68.58.32.38.48 1 .48 1.86q0 1.32-.54 1.9zm32.64.06c-.28.33-.82.5-1.62.5h-1.14v-4.84h1.14c.6 0 1.04.08 1.32.26.3.17.49.43.58.78.1.33.14.82.14 1.46 0 .88-.14 1.49-.42 1.84z" fill="#FFF" fill-rule="evenodd"/><path d="M89.5 38v-4.5h3v-32h-82v3h-4" stroke="#FFF" stroke-width="3"/></svg>