<svg width="21.000000" height="21.000000" viewBox="0 0 21 21" fill="none" xmlns="http://www.w3.org/2000/svg" xmlns:xlink="http://www.w3.org/1999/xlink">
	<desc>
			Created with Pixso.
	</desc>
	<defs>
		<clipPath id="clip69_3284">
			<rect id="facebook (3)" rx="0.000000" width="20.000000" height="20.000000" transform="translate(0.500000 0.500000)" fill="white" fill-opacity="0"/>
		</clipPath>
	</defs>
	<rect id="facebook (3)" rx="0.000000" width="20.000000" height="20.000000" transform="translate(0.500000 0.500000)" fill="#FFFFFF" fill-opacity="0"/>
	<g clip-path="url(#clip69_3284)">
		<path id="Vector" d="M0 0L0 21L21 21L21 0L0 0ZM13.89 5.77L12.25 5.77C11.92 5.77 11.59 6.11 11.59 6.36L11.59 8.03L13.88 8.03C13.79 9.32 13.6 10.49 13.6 10.49L11.58 10.49L11.58 17.76L8.57 17.76L8.57 10.49L7.1 10.49L7.1 8.04L8.57 8.04L8.57 6.04C8.57 5.68 8.49 3.23 11.66 3.23L13.89 3.23L13.89 5.77L13.89 5.77Z" fill="#FFFFFF" fill-opacity="1.000000" fill-rule="evenodd"/>
	</g>
</svg>
