<svg xmlns="http://www.w3.org/2000/svg" width="14.8" height="13.065" fill="none"><path d="M7.472 10.877l-.072.069-.079-.069c-3.42-2.96-5.68-4.916-5.68-6.9 0-1.374 1.08-2.404 2.52-2.404 1.108 0 2.188.687 2.57 1.62H8.07c.381-.933 1.461-1.62 2.57-1.62 1.44 0 2.52 1.03 2.52 2.404 0 1.984-2.26 3.94-5.688 6.9zM10.64.2A4.42 4.42 0 007.4 1.628 4.42 4.42 0 004.16.2C1.943.2.2 1.855.2 3.977c0 2.588 2.448 4.71 6.156 7.917L7.4 12.8l1.044-.906C12.152 8.687 14.6 6.565 14.6 3.977 14.6 1.855 12.858.2 10.64.2z" fill="#3E3E3E"/><path d="M7.538 1.482a4.017 4.017 0 00-.138.146A4.432 4.432 0 004.16.2C1.943.2.2 1.855.2 3.977c0 2.588 2.448 4.71 6.156 7.917L7.4 12.8l1.044-.906C12.152 8.687 14.6 6.565 14.6 3.977 14.6 1.855 12.858.2 10.64.2a4.432 4.432 0 00-3.102 1.282zM7.4 1.337A4.518 4.518 0 006.037.404 4.54 4.54 0 002.532.305a4.124 4.124 0 00-1.321.843A3.912 3.912 0 00.324 2.41 3.86 3.86 0 000 4.011c.005.644.159 1.287.46 1.929.279.595.704 1.227 1.276 1.893.487.569 1.14 1.23 1.959 1.982.505.465 1.349 1.208 2.53 2.23l1.175 1.02 1.175-1.02a126.358 126.358 0 002.53-2.23c.82-.752 1.472-1.413 1.96-1.982.571-.666.997-1.298 1.276-1.893a4.6 4.6 0 00.46-1.93v-.033a3.93 3.93 0 00-.324-1.566 3.865 3.865 0 00-.887-1.263 4.047 4.047 0 00-1.322-.842A4.32 4.32 0 0010.64 0a4.539 4.539 0 00-1.877.404 4.518 4.518 0 00-1.363.933zm-.67 1.857c-.381-.934-1.461-1.62-2.57-1.62-1.44 0-2.52 1.03-2.52 2.403 0 1.984 2.261 3.94 5.681 6.9l.08.069.071-.069c3.427-2.96 5.688-4.916 5.688-6.9 0-1.374-1.08-2.404-2.52-2.404-1.109 0-2.189.687-2.57 1.62H6.73zm.667 7.484a137.942 137.942 0 01-2.272-1.996 25.45 25.45 0 01-1.778-1.754c-.506-.564-.88-1.079-1.123-1.545-.256-.49-.384-.96-.384-1.406a2.24 2.24 0 01.175-.877 2.094 2.094 0 01.669-.853 2.242 2.242 0 01.615-.33 2.557 2.557 0 01.91-.143c.238.004.474.042.71.113a2.804 2.804 0 01.692.315c.216.136.403.295.563.477.162.184.286.38.371.59l.051.125h1.608l.05-.125c.087-.21.21-.406.373-.59.16-.182.347-.34.562-.477a2.802 2.802 0 01.693-.315 2.634 2.634 0 011.687.055 2.243 2.243 0 01.733.463 2.1 2.1 0 01.553.883c.07.218.105.448.105.689 0 .447-.128.916-.384 1.406-.243.466-.618.981-1.123 1.545a25.368 25.368 0 01-1.78 1.754c-.459.416-1.217 1.081-2.276 1.996z" fill="#3E3E3E" fill-rule="evenodd"/></svg>