<svg width="21.8" height="20.59" fill="none" xmlns="http://www.w3.org/2000/svg"><path d="M10.9 4.1a5.176 5.176 0 013.82-1.71c2.62 0 4.68 1.97 4.68 4.5 0 3.08-2.89 5.61-7.27 9.43l-1.23 1.07-1.24-1.07C5.29 12.5 2.4 9.97 2.4 6.89c0-2.53 2.05-4.5 4.67-4.5 1.48 0 2.9.67 3.83 1.71z"/><path d="M10.9 1.04q.34-.2.71-.37.88-.4 1.8-.56.65-.11 1.31-.11.92 0 1.79.21.48.12.94.3.73.3 1.37.74.47.32.88.71.54.52.95 1.13.34.51.59 1.08.23.54.36 1.1.2.79.2 1.62 0 .24-.02.48-.09 1.4-.73 2.77-.62 1.33-1.82 2.74-.94 1.12-2.49 2.55-.92.85-3.03 2.69l-2.81 2.46-2.81-2.46q-2.12-1.84-3.04-2.69Q3.5 14 2.56 12.88q-1.2-1.41-1.82-2.74Q.1 8.77.01 7.37 0 7.13 0 6.89q0-.83.19-1.62.13-.56.36-1.1.25-.57.59-1.08.41-.61.95-1.13.41-.39.88-.71.64-.44 1.37-.74.46-.18.94-.3Q6.15 0 7.07 0q.66 0 1.31.11.92.16 1.8.56.37.17.72.37zm-.83 2.32a5.26 5.26 0 00-3-.97c-2.62 0-4.67 1.97-4.67 4.5 0 3.08 2.89 5.61 7.26 9.43l1.24 1.07 1.23-1.07c4.38-3.82 7.27-6.35 7.27-9.43 0-2.53-2.06-4.5-4.68-4.5-1.09 0-2.15.37-3 .97-.31.22-.58.46-.82.74-.25-.28-.52-.52-.83-.74z" fill="#FFF" fill-rule="evenodd"/></svg>