<svg xmlns="http://www.w3.org/2000/svg" width="21.8" height="20.59" fill="none"><path d="M10.9 4.1a5.198 5.198 0 013.825-1.7c2.618 0 4.675 1.97 4.675 4.496 0 3.082-2.89 5.607-7.267 9.425L10.9 17.4l-1.232-1.08C5.29 12.504 2.4 9.979 2.4 6.897 2.4 4.37 4.457 2.4 7.075 2.4c1.479 0 2.899.662 3.825 1.7z"/><path d="M10.9 1.042a7.827 7.827 0 012.518-.928A7.48 7.48 0 0114.725 0a7.237 7.237 0 014.102 1.253 6.956 6.956 0 011.825 1.84 6.77 6.77 0 01.958 2.184 6.864 6.864 0 01.174 2.096 7.735 7.735 0 01-.728 2.77c-.412.887-1.018 1.801-1.82 2.744-.63.742-1.46 1.59-2.49 2.544-.613.569-1.624 1.467-3.033 2.696L10.9 20.59l-2.81-2.46a151.22 151.22 0 01-3.036-2.699c-1.03-.954-1.86-1.802-2.49-2.544-.802-.943-1.408-1.857-1.82-2.743a7.736 7.736 0 01-.728-2.772A6.865 6.865 0 01.19 5.276 6.782 6.782 0 012.092 1.97 6.952 6.952 0 014.35.519a7.234 7.234 0 012.725-.52 7.48 7.48 0 013.105.673c.25.113.49.236.72.37zm-.821 2.325A5.223 5.223 0 007.075 2.4C4.457 2.4 2.4 4.37 2.4 6.896c0 3.082 2.89 5.607 7.268 9.425L10.9 17.4l1.232-1.08C16.51 12.504 19.4 9.979 19.4 6.897c0-2.526-2.057-4.496-4.675-4.496a5.22 5.22 0 00-3.004.967 4.934 4.934 0 00-.821.733 4.934 4.934 0 00-.821-.733z" fill="#FFF" fill-rule="evenodd"/></svg>