<svg width="21.000000" height="21.000000" viewBox="0 0 21 21" fill="none" xmlns="http://www.w3.org/2000/svg" xmlns:xlink="http://www.w3.org/1999/xlink">
	<desc>
			Created with Pixso.
	</desc>
	<defs>
		<clipPath id="clip69_3287">
			<rect id="instagram-photo-camera-symbol" rx="0.000000" width="20.000000" height="20.000000" transform="translate(0.500000 0.500000)" fill="white" fill-opacity="0"/>
		</clipPath>
	</defs>
	<rect id="instagram-photo-camera-symbol" rx="0.000000" width="20.000000" height="20.000000" transform="translate(0.500000 0.500000)" fill="#FFFFFF" fill-opacity="0"/>
	<g clip-path="url(#clip69_3287)">
		<path id="Vector" d="M3.82 21L17.17 21L18.3 21L21 21L21 18.3L21 17.61L21 3.38L21 2.69L21 0L18.3 0L17.17 0L3.82 0L2.69 0L0 0L0 2.69L0 3.38L0 17.61L0 18.3L0 21L2.69 21L3.82 21L3.82 21ZM14.35 3.28C14.35 3.02 14.44 2.8 14.62 2.61C14.81 2.43 15.03 2.33 15.29 2.33L17.67 2.33C17.94 2.33 18.16 2.43 18.34 2.61C18.53 2.8 18.62 3.02 18.62 3.28L18.62 5.53C18.62 5.8 18.53 6.02 18.34 6.2C18.16 6.38 17.94 6.48 17.67 6.48L15.29 6.48C15.03 6.48 14.81 6.38 14.62 6.2C14.44 6.02 14.35 5.8 14.35 5.53L14.35 3.28L14.35 3.28ZM13.5 8.37C14.32 9.16 14.73 10.13 14.73 11.26C14.73 12.39 14.32 13.35 13.5 14.15C12.67 14.95 11.68 15.35 10.51 15.35C9.35 15.35 8.36 14.95 7.54 14.15C6.71 13.35 6.3 12.39 6.3 11.26C6.3 10.13 6.71 9.16 7.54 8.37C8.36 7.57 9.35 7.17 10.51 7.17C11.68 7.17 12.67 7.57 13.5 8.37ZM5.64 3.28C5.64 3.02 5.73 2.8 5.91 2.61C6.1 2.43 6.32 2.33 6.58 2.33L7.09 2.33C7.35 2.33 7.57 2.43 7.76 2.61C7.94 2.8 8.03 3.02 8.03 3.28L8.03 5.53C8.03 5.8 7.94 6.02 7.76 6.2C7.57 6.38 7.35 6.48 7.09 6.48L6.58 6.48C6.32 6.48 6.1 6.38 5.91 6.2C5.73 6.02 5.64 5.8 5.64 5.53L5.64 3.28ZM2.33 3.28C2.33 3.02 2.42 2.8 2.61 2.61C2.79 2.43 3.01 2.33 3.28 2.33L3.78 2.33C4.04 2.33 4.27 2.43 4.45 2.61C4.63 2.8 4.72 3.02 4.72 3.28L4.72 5.53C4.72 5.8 4.63 6.02 4.45 6.2C4.27 6.38 4.04 6.48 3.78 6.48L3.28 6.48C3.01 6.48 2.79 6.38 2.61 6.2C2.42 6.02 2.33 5.8 2.33 5.53L2.33 3.28ZM2.33 18.28L2.33 9.42L4.26 9.42C4.08 9.99 3.99 10.59 3.99 11.21C3.99 12.96 4.63 14.45 5.9 15.69C7.18 16.92 8.71 17.54 10.51 17.54C11.69 17.54 12.79 17.26 13.79 16.69C14.79 16.13 15.59 15.36 16.17 14.39C16.75 13.42 17.04 12.36 17.04 11.21C17.04 10.59 16.95 9.99 16.77 9.42L18.62 9.42L18.62 18.28C18.62 18.51 18.53 18.71 18.37 18.87C18.21 19.03 18.01 19.11 17.78 19.11L3.17 19.11C2.93 19.11 2.73 19.03 2.57 18.87C2.41 18.71 2.33 18.51 2.33 18.28Z" fill="#FFFFFF" fill-opacity="1.000000" fill-rule="nonzero"/>
	</g>
</svg>
