<svg width="21.000000" height="21.000000" viewBox="0 0 21 21" fill="none" xmlns="http://www.w3.org/2000/svg" xmlns:xlink="http://www.w3.org/1999/xlink">
	<desc>
			Created with Pixso.
	</desc>
	<defs/>
	<path id="Vector" d="M0 0L0 21L21 21L21 0L0 0ZM16.28 7.53C16.28 7.66 16.28 7.79 16.28 7.92C16.28 11.86 13.28 16.4 7.8 16.4C6.11 16.4 4.55 15.91 3.23 15.06C3.46 15.09 3.7 15.1 3.94 15.1C5.33 15.1 6.62 14.63 7.64 13.83C6.34 13.8 5.23 12.94 4.86 11.76C5.04 11.79 5.22 11.81 5.42 11.81C5.69 11.81 5.95 11.77 6.2 11.7C4.84 11.43 3.81 10.23 3.81 8.78C3.81 8.77 3.81 8.76 3.81 8.74C4.21 8.97 4.67 9.1 5.16 9.12C4.36 8.58 3.83 7.67 3.83 6.63C3.83 6.09 3.98 5.57 4.24 5.13C5.71 6.94 7.91 8.13 10.39 8.25C10.33 8.03 10.31 7.8 10.31 7.57C10.31 5.92 11.64 4.59 13.29 4.59C14.15 4.59 14.92 4.95 15.47 5.53C16.15 5.4 16.79 5.15 17.36 4.81C17.14 5.5 16.67 6.09 16.05 6.46C16.65 6.38 17.23 6.22 17.76 5.99C17.36 6.58 16.86 7.11 16.28 7.53Z" fill="#FFFFFF" fill-opacity="1.000000" fill-rule="evenodd"/>
</svg>
