<svg viewBox="0 0 14.8003 13.0647" xmlns="http://www.w3.org/2000/svg" xmlns:xlink="http://www.w3.org/1999/xlink" width="14.800293" height="13.064697" fill="none" customFrame="#000000">
	<path id="Vector" d="M7.47219 10.8773L7.40019 10.946L7.32099 10.8773C3.901 7.91788 1.6402 5.96093 1.6402 3.97652C1.6402 2.60322 2.7202 1.57325 4.16019 1.57325C5.26899 1.57325 6.34899 2.2599 6.73059 3.19374L8.06979 3.19374C8.45139 2.2599 9.53139 1.57325 10.6402 1.57325C12.0802 1.57325 13.1602 2.60322 13.1602 3.97652C13.1602 5.96093 10.8994 7.91788 7.47219 10.8773ZM10.6402 0.199951C9.38739 0.199951 8.18499 0.756136 7.40019 1.62818C6.61539 0.756136 5.41299 0.199951 4.16019 0.199951C1.9426 0.199951 0.200195 1.85477 0.200195 3.97652C0.200195 6.56518 2.6482 8.68693 6.35619 11.8936L7.40019 12.8L8.44419 11.8936C12.1522 8.68693 14.6002 6.56518 14.6002 3.97652C14.6002 1.85477 12.8578 0.199951 10.6402 0.199951Z" fill="rgb(62.6875,62.6875,62.6875)" fill-rule="nonzero" />
	<path id="Vector" d="M7.5381 1.48248C7.49083 1.53 7.44483 1.57858 7.40019 1.62818C7.35555 1.57858 7.30956 1.53 7.26229 1.48248C6.47844 0.694663 5.34173 0.199951 4.16019 0.199951C1.9426 0.199951 0.200195 1.85477 0.200195 3.97652C0.200195 6.56518 2.6482 8.68693 6.35619 11.8936L7.40019 12.8L8.44419 11.8936C12.1522 8.68693 14.6002 6.56518 14.6002 3.97652C14.6002 1.85477 12.8578 0.199951 10.6402 0.199951C9.45865 0.199951 8.32194 0.694663 7.5381 1.48248ZM7.40019 1.33717C7.3354 1.27195 7.26867 1.20892 7.2 1.14807C6.85988 0.846644 6.4723 0.598769 6.03727 0.40444C5.66425 0.237813 5.28282 0.122666 4.89299 0.0590012C4.65194 0.0196345 4.40767 -4.88311e-05 4.16019 -4.88311e-05C3.74963 -4.88162e-05 3.35364 0.0526774 2.97223 0.15813C2.82334 0.199296 2.67667 0.248497 2.53222 0.305734C2.21637 0.430886 1.92409 0.589137 1.65538 0.780489C1.49917 0.891727 1.35093 1.01415 1.21066 1.14776C0.987963 1.35987 0.794728 1.59123 0.630952 1.84185C0.51339 2.02174 0.411006 2.21156 0.323803 2.41129C0.239994 2.60325 0.172464 2.79938 0.121213 2.99967C0.0405343 3.31496 0.000195101 3.64058 0.000195071 3.97652C0.000195071 3.98776 0.000240073 3.999 0.000330076 4.01023C0.00549017 4.65455 0.158563 5.29768 0.459549 5.93962C0.738839 6.53529 1.16427 7.16657 1.73584 7.83346C2.22312 8.40199 2.87606 9.06251 3.69466 9.815C4.2004 10.2799 5.04397 11.0232 6.22537 12.0449L7.40019 13.0648L8.57531 12.0446C9.75647 11.0231 10.5999 10.2799 11.1057 9.815C11.9243 9.06252 12.5773 8.402 13.0646 7.83346C13.6361 7.16658 14.0616 6.5353 14.3408 5.93962C14.6418 5.29765 14.7949 4.6545 14.8001 4.01017C14.8001 3.99896 14.8002 3.98774 14.8002 3.97652C14.8002 3.64055 14.7598 3.31491 14.6792 2.99959C14.6279 2.79933 14.5604 2.60323 14.4766 2.41129C14.3894 2.21152 14.287 2.02168 14.1694 1.84176C14.0056 1.59118 13.8124 1.35984 13.5897 1.14776C13.4494 1.01413 13.3012 0.891696 13.1449 0.780447C12.8763 0.589113 12.584 0.430876 12.2682 0.305734C12.1237 0.248494 11.977 0.199291 11.8281 0.158123C11.4467 0.0526752 11.0508 -4.88311e-05 10.6402 -4.88311e-05C10.3927 -4.88311e-05 10.1485 0.0196309 9.90747 0.0589904C9.51761 0.122653 9.13616 0.237803 8.76312 0.40444C8.32814 0.598746 7.9406 0.84659 7.6005 1.14797C7.53179 1.20885 7.46503 1.27192 7.40019 1.33717ZM6.73059 3.19374C6.34899 2.2599 5.26899 1.57325 4.16019 1.57325C2.7202 1.57325 1.6402 2.60322 1.6402 3.97652C1.6402 5.96093 3.901 7.91788 7.32099 10.8773L7.40019 10.946L7.47219 10.8773C10.8994 7.91788 13.1602 5.96093 13.1602 3.97652C13.1602 2.60322 12.0802 1.57325 10.6402 1.57325C9.53139 1.57325 8.45139 2.2599 8.06979 3.19374L6.73059 3.19374ZM7.39665 10.6783C6.33584 9.76001 5.57868 9.09448 5.12518 8.68171C4.37997 8.00345 3.78725 7.4188 3.34701 6.92778C2.84144 6.36388 2.46717 5.84904 2.22421 5.38327C1.9682 4.89249 1.8402 4.42357 1.8402 3.97652C1.8402 3.73582 1.87521 3.50636 1.94523 3.28814C1.96563 3.22454 1.98901 3.1619 2.01537 3.10022C2.06921 2.97417 2.13396 2.85553 2.2096 2.7443C2.29266 2.62214 2.38887 2.50892 2.49822 2.40463C2.5573 2.34829 2.61914 2.29558 2.68374 2.2465C2.84837 2.12143 3.03091 2.01995 3.23138 1.94206C3.25393 1.9333 3.2766 1.92488 3.29939 1.9168C3.56936 1.8211 3.8563 1.77325 4.1602 1.77325C4.1767 1.77325 4.19319 1.77341 4.20969 1.77373C4.44658 1.77833 4.68284 1.81598 4.91845 1.88669C5.04295 1.92405 5.16372 1.96954 5.28077 2.02316C5.39444 2.07523 5.5046 2.13496 5.61124 2.20237C5.82652 2.33843 6.01403 2.49721 6.17377 2.67871C6.33593 2.86296 6.45983 3.05985 6.54545 3.26939L6.59627 3.39374L8.20412 3.39374L8.25493 3.26939C8.34056 3.05985 8.46445 2.86296 8.62662 2.67871C8.78636 2.49721 8.97387 2.33843 9.18915 2.20237C9.29576 2.13498 9.40589 2.07526 9.51952 2.0232C9.6366 1.96956 9.75741 1.92406 9.88194 1.88669C10.1176 1.81598 10.3538 1.77833 10.5907 1.77373C10.6072 1.77341 10.6237 1.77325 10.6402 1.77325C10.9441 1.77325 11.231 1.8211 11.501 1.91679C11.5238 1.92487 11.5465 1.9333 11.569 1.94206C11.7695 2.01996 11.952 2.12144 12.1167 2.24652C12.1813 2.29559 12.2431 2.3483 12.3022 2.40463C12.4115 2.50889 12.5077 2.62209 12.5907 2.74422C12.6664 2.85547 12.7312 2.97414 12.785 3.10022C12.8114 3.16191 12.8348 3.22455 12.8552 3.28815C12.9252 3.50637 12.9602 3.73583 12.9602 3.97652C12.9602 4.42364 12.8322 4.89255 12.5761 5.38324C12.333 5.84914 11.9584 6.36396 11.4525 6.92771C11.0116 7.41909 10.4182 8.00373 9.67228 8.68161C9.21445 9.09771 8.45591 9.76328 7.39665 10.6783Z" fill="rgb(62.6875,62.6875,62.6875)" fill-rule="evenodd" />
</svg>
