<svg width="21.800049" height="20.589600" viewBox="0 0 21.8 20.5896" fill="none" xmlns="http://www.w3.org/2000/svg" xmlns:xlink="http://www.w3.org/1999/xlink">
	<desc>
			Created with Pixso.
	</desc>
	<defs/>
	<path id="Vector" d="M10.9 4.1C11.82 3.06 13.24 2.39 14.72 2.39C17.34 2.39 19.4 4.36 19.4 6.89C19.4 9.97 16.51 12.5 12.13 16.32L10.9 17.39L9.66 16.32C5.29 12.5 2.4 9.97 2.4 6.89C2.4 4.36 4.45 2.39 7.07 2.39C8.55 2.39 9.97 3.06 10.9 4.1Z" fill="#FFFFFF" fill-opacity="0" fill-rule="nonzero"/>
	<path id="Vector" d="M10.9 1.04Q11.24 0.84 11.61 0.67Q12.49 0.27 13.41 0.11Q14.06 0 14.72 0Q15.64 0 16.51 0.21Q16.99 0.33 17.45 0.51Q18.18 0.81 18.82 1.25Q19.29 1.57 19.7 1.96Q20.24 2.48 20.65 3.09Q20.99 3.6 21.24 4.17Q21.47 4.71 21.6 5.27Q21.8 6.06 21.8 6.89Q21.8 7.13 21.78 7.37Q21.69 8.77 21.05 10.14Q20.43 11.47 19.23 12.88Q18.29 14 16.74 15.43Q15.82 16.28 13.71 18.12L10.9 20.58L8.09 18.12Q5.97 16.28 5.05 15.43Q3.5 14 2.56 12.88Q1.36 11.47 0.74 10.14Q0.1 8.77 0.01 7.37Q0 7.13 0 6.89Q0 6.06 0.19 5.27Q0.32 4.71 0.55 4.17Q0.8 3.6 1.14 3.09Q1.55 2.48 2.09 1.96Q2.5 1.57 2.97 1.25Q3.61 0.81 4.34 0.51Q4.8 0.33 5.28 0.21Q6.15 0 7.07 0Q7.73 0 8.38 0.11Q9.3 0.27 10.18 0.67Q10.55 0.84 10.9 1.04ZM10.07 3.36C9.22 2.76 8.16 2.39 7.07 2.39C4.45 2.39 2.4 4.36 2.4 6.89C2.4 9.97 5.29 12.5 9.66 16.32L10.9 17.39L12.13 16.32C16.51 12.5 19.4 9.97 19.4 6.89C19.4 4.36 17.34 2.39 14.72 2.39C13.63 2.39 12.57 2.76 11.72 3.36C11.41 3.58 11.14 3.82 10.9 4.1C10.65 3.82 10.38 3.58 10.07 3.36Z" fill="#FFFFFF" fill-opacity="1.000000" fill-rule="evenodd"/>
</svg>
