<svg viewBox="0 0 21.8 20.5896" xmlns="http://www.w3.org/2000/svg" xmlns:xlink="http://www.w3.org/1999/xlink" width="21.800049" height="20.589600" fill="none" customFrame="#000000">
	<path id="Vector" d="M10.9 4.10017C11.8265 3.06203 13.246 2.3999 14.725 2.3999C17.343 2.3999 19.4 4.36993 19.4 6.89581C19.4 9.97756 16.51 12.5034 12.1325 16.3209L10.9 17.3999L9.66752 16.3209C5.29002 12.5034 2.40002 9.97756 2.40002 6.89581C2.40002 4.36993 4.45703 2.3999 7.07503 2.3999C8.55403 2.3999 9.97352 3.06203 10.9 4.10017Z" fill="rgb(255,255,255)" fill-opacity="0" fill-rule="nonzero" />
	<path id="Vector" d="M10.9 1.04195C11.1307 0.907824 11.3706 0.784671 11.6196 0.672492C12.2054 0.408636 12.8049 0.222413 13.4182 0.113822C13.8471 0.0378757 14.2827 -9.77516e-05 14.725 -9.77516e-05C15.3412 -9.77516e-05 15.9392 0.0723617 16.5191 0.21728C16.8349 0.296201 17.1454 0.39661 17.4505 0.518509C17.9425 0.715106 18.4015 0.959769 18.8274 1.2525C19.1381 1.46601 19.4312 1.70509 19.7068 1.96974C20.066 2.3148 20.3811 2.68949 20.6519 3.09381C20.8791 3.43307 21.0752 3.79318 21.2401 4.17416C21.3959 4.53381 21.5191 4.90132 21.6098 5.27668C21.7366 5.80106 21.8 6.34077 21.8 6.89581C21.8 7.05506 21.7948 7.21395 21.7844 7.37251C21.723 8.30812 21.4803 9.23183 21.0563 10.1436C20.6443 11.0297 20.0377 11.9441 19.2366 12.8867C18.6058 13.6289 17.7757 14.4771 16.7464 15.4312C16.1333 15.9995 15.1223 16.898 13.7134 18.1266L10.9 20.5897L8.09013 18.1297C6.67891 16.899 5.66675 15.9995 5.05365 15.4312C4.02435 14.4771 3.1943 13.6289 2.5635 12.8867C1.76231 11.9441 1.15572 11.0297 0.743724 10.1436C0.319768 9.23182 0.0770738 8.30811 0.0156403 7.37249C0.00522971 7.21394 2.43187e-05 7.05505 2.43187e-05 6.89581C2.40803e-05 6.34081 0.0634093 5.80112 0.19018 5.27676C0.280935 4.90138 0.404175 4.53384 0.559901 4.17416C0.724846 3.79319 0.920933 3.43307 1.14816 3.09381C1.41897 2.6895 1.734 2.3148 2.09327 1.96974C2.36881 1.70509 2.66192 1.46601 2.9726 1.2525C3.39856 0.959771 3.85756 0.715107 4.34958 0.518509C4.65465 0.396613 4.96509 0.296205 5.28091 0.217285C5.86084 0.0723631 6.45888 -9.77516e-05 7.07502 -9.77516e-05C7.51738 -9.77516e-05 7.95301 0.0378766 8.38191 0.113826C8.99516 0.222417 9.59466 0.408639 10.1804 0.672492C10.4294 0.784671 10.6693 0.907824 10.9 1.04195ZM10.0789 3.36739C9.22634 2.76077 8.1669 2.3999 7.07503 2.3999C4.45703 2.3999 2.40002 4.36993 2.40002 6.89581C2.40002 9.97756 5.29002 12.5034 9.66752 16.3209L10.9 17.3999L12.1325 16.3209C16.51 12.5034 19.4 9.97756 19.4 6.89581C19.4 4.36993 17.343 2.3999 14.725 2.3999C13.6332 2.3999 12.5737 2.76077 11.7211 3.36739C11.4188 3.58247 11.1425 3.82844 10.9 4.10017C10.6575 3.82844 10.3812 3.58247 10.0789 3.36739Z" fill="rgb(255,255,255)" fill-rule="evenodd" />
</svg>
