<svg viewBox="0 0 10.7998 10.7999" xmlns="http://www.w3.org/2000/svg" xmlns:xlink="http://www.w3.org/1999/xlink" width="10.799805" height="10.799866" fill="none" customFrame="#000000">
	<path id="Vector" d="M0.77154 10.7999C0.570974 10.7999 0.373495 10.7212 0.226156 10.5738C0.00784861 10.3555 -0.0592636 10.0285 0.0549044 9.7415L1.59771 5.88447C1.63706 5.78805 1.69491 5.69933 1.76897 5.62605L7.1688 0.226215C7.47042 -0.0754049 7.95795 -0.0754049 8.25957 0.226215L10.5738 2.54043C10.8754 2.84205 10.8754 3.32958 10.5738 3.6312L7.48816 6.71682C7.18654 7.01844 6.69902 7.01844 6.3974 6.71682C6.09578 6.4152 6.09578 5.92767 6.3974 5.62605L8.93763 3.08581L7.71419 1.86237L2.97236 6.60496L2.15621 8.64379L4.19581 7.82841L4.3092 7.71424L4.08318 7.48822C3.78156 7.1866 3.78156 6.69907 4.08318 6.39746C4.3848 6.09584 4.87233 6.09584 5.17395 6.39746L5.94535 7.16886C6.24697 7.47048 6.24697 7.95801 5.94535 8.25963L5.17395 9.03103C5.09989 9.10509 5.01195 9.16294 4.91476 9.20228L1.05773 10.7451C0.965162 10.7821 0.867965 10.7999 0.77154 10.7999Z" fill="rgb(0,0,0)" fill-rule="nonzero" />
</svg>
